<?xml version="1.0" encoding="UTF-8"?>
<!DOCTYPE svg PUBLIC "-//W3C//DTD SVG 1.1//EN" "http://www.w3.org/Graphics/SVG/1.1/DTD/svg11.dtd">
<!-- Creator: CorelDRAW 2017 -->
<svg xmlns="http://www.w3.org/2000/svg" xml:space="preserve" width="0.187496in" height="0.187496in" version="1.1" style="shape-rendering:geometricPrecision; text-rendering:geometricPrecision; image-rendering:optimizeQuality; fill-rule:evenodd; clip-rule:evenodd"
viewBox="0 0 380 380"
 xmlns:xlink="http://www.w3.org/1999/xlink">
 <defs>
  <style type="text/css">
   <![CDATA[
    .fil1 {fill:#212735}
    .fil0 {fill:white}
   ]]>
  </style>
 </defs>
 <g id="Layer_x0020_1">
  <metadata id="CorelCorpID_0Corel-Layer"/>
  <g id="_1775467698032">
   <circle class="fil0" cx="190" cy="190" r="190"/>
   <g>
    <path class="fil1" d="M150 291c11,0 11,-1 20,-5 12,-5 24,-5 36,0 8,3 9,5 19,5 5,0 11,-3 14,-6 1,-1 1,-1 2,-1 3,-2 6,-6 8,-8 7,-9 11,-14 16,-23 2,-3 3,-6 5,-9 0,-1 1,-1 1,-2 1,-2 3,-6 3,-7 -2,0 -7,-3 -9,-4 -4,-3 -9,-7 -12,-11 -5,-7 -9,-17 -9,-27 0,-7 0,-10 2,-16 2,-6 7,-14 12,-19 2,-1 7,-6 9,-6 0,-1 -4,-5 -5,-6 0,0 -1,0 -1,-1l-2 -2c0,0 -1,0 -1,-1 -4,-3 -8,-6 -12,-8 -11,-5 -19,-6 -31,-3l-7 2c-7,3 -14,6 -22,6 -17,0 -29,-15 -55,-6 -3,1 -6,2 -9,4 -8,4 -15,11 -20,18 -6,8 -9,19 -10,28 0,1 0,3 0,4l0 8 0 0c1,11 1,19 4,29 3,12 6,17 11,27 4,8 10,17 15,23 1,2 5,5 6,7 3,2 3,3 7,6 2,1 4,2 6,3 2,1 5,2 7,2z"/>
    <path class="fil1" d="M180 125c0,2 0,4 0,6 8,0 13,-1 19,-5 2,-1 6,-4 8,-5 3,-3 6,-6 9,-10 5,-8 9,-19 8,-29 0,-1 0,-2 -1,-2 -8,0 -19,6 -25,11l-4 4c-6,6 -14,18 -14,31z"/>
   </g>
  </g>
 </g>
</svg>
