<?xml version="1.0" encoding="UTF-8"?>
<!DOCTYPE svg PUBLIC "-//W3C//DTD SVG 1.0//EN" "http://www.w3.org/TR/2001/REC-SVG-20010904/DTD/svg10.dtd">
<!-- Creator: CorelDRAW 2017 -->
<svg xmlns="http://www.w3.org/2000/svg" xml:space="preserve" width="1.11963in" height="0.869063in" version="1.0" style="shape-rendering:geometricPrecision; text-rendering:geometricPrecision; image-rendering:optimizeQuality; fill-rule:evenodd; clip-rule:evenodd"
viewBox="0 0 9262 7189"
 xmlns:xlink="http://www.w3.org/1999/xlink">
 <defs>
  <style type="text/css">
   <![CDATA[
    .fil0 {fill:white}
   ]]>
  </style>
 </defs>
 <g id="Layer_x0020_1">
  <metadata id="CorelCorpID_0Corel-Layer"/>
  <path class="fil0" d="M391 7183l7741 -1463c158,-30 270,-164 270,-325l0 -2110c0,-161 112,-295 270,-325l321 -60c158,-29 270,-164 270,-325l0 -2245c0,-102 -41,-189 -119,-254 -78,-65 -172,-90 -272,-71l-6364 1207c-158,30 -270,164 -270,325l0 1757c0,161 -112,295 -270,325l-1697 316c-158,29 -270,164 -270,325l0 2598c0,102 41,189 119,254 78,65 172,90 272,71zm1585 -2638c101,18 193,40 279,68 22,7 45,5 69,-8 23,-12 41,-31 51,-55l163 -373c20,-46 4,-94 -38,-108 -96,-34 -205,-59 -326,-70 -155,-14 -308,-8 -463,21 -170,32 -319,85 -447,162 -127,77 -226,169 -297,281 -71,112 -105,234 -105,367 0,136 34,237 102,306 68,69 150,113 243,133 93,22 209,37 348,48 116,7 201,16 254,32 54,15 79,47 79,93 0,37 -14,68 -42,90 -28,25 -68,41 -116,50 -102,19 -229,12 -379,-23 -111,-23 -210,-57 -294,-101 -22,-11 -47,-11 -73,0 -26,11 -46,31 -57,57l-162 360c-20,43 -7,89 30,106 116,56 251,94 401,115 178,25 353,22 528,-11 155,-29 294,-77 421,-149 127,-72 226,-161 302,-274 73,-110 110,-235 110,-379 0,-138 -34,-245 -105,-320 -71,-72 -150,-119 -243,-141 -93,-22 -212,-40 -353,-53 -113,-10 -195,-20 -246,-36 -54,-15 -79,-45 -79,-90 0,-59 40,-95 122,-110 82,-15 189,-13 322,11zm5602 -1118c-107,-45 -232,-56 -373,-29 -161,30 -291,114 -393,251l0 -67c0,-49 -40,-81 -88,-72l-460 86c-49,9 -88,56 -88,105l0 1918c0,49 40,81 88,72l460 -86c48,-9 88,-56 88,-105l0 -434c0,-32 16,-63 44,-84 28,-21 60,-28 88,-17 16,6 32,11 49,16 71,18 147,21 229,5 138,-26 263,-80 367,-164 105,-84 184,-190 240,-319 57,-129 85,-273 85,-431 0,-161 -28,-300 -88,-410 -59,-110 -141,-188 -249,-233zm-367 976c-42,62 -99,100 -170,113 -71,13 -124,-5 -167,-51 -42,-46 -62,-116 -62,-206 0,-90 20,-168 62,-229 42,-62 96,-100 167,-113 71,-13 127,5 170,50 42,46 62,116 62,206 0,90 -20,168 -62,229zm-1633 676l-224 42c-62,12 -113,71 -113,134l0 76c0,62 51,103 113,92l413 -77c62,-12 113,-72 113,-134l0 -413c0,-62 -51,-103 -113,-92l-76 14c-62,12 -113,71 -113,134l0 224zm0 -1084l0 224c0,62 51,103 113,92l76 -14c62,-12 113,-72 113,-134l0 -413c0,-62 -51,-103 -113,-92l-413 77c-62,12 -113,72 -113,134l0 76c0,62 51,103 113,92l224 -42zm-542 257c213,-40 386,101 386,314 0,213 -173,418 -386,458 -213,40 -386,-101 -386,-314 0,-213 173,-418 386,-458zm-542 1029l224 -42c62,-12 113,30 113,92l0 76c0,62 -51,122 -113,134l-413 77c-62,12 -113,-30 -113,-92l0 -413c0,-62 51,-122 113,-134l76 -14c62,-12 113,30 113,92l0 224zm0 -1084l0 224c0,62 -51,122 -113,134l-76 14c-62,12 -113,-30 -113,-92l0 -413c0,-62 51,-122 113,-134l413 -77c62,-12 113,30 113,92l0 76c0,62 -51,122 -113,134l-224 42zm-1743 -2602l0 1805c0,49 40,81 88,72l479 -89c49,-9 88,-56 88,-105l0 -468c0,-49 40,-95 88,-105l703 -131c49,-9 88,-56 88,-105l0 -321c0,-49 -40,-81 -88,-72l-703 131c-49,9 -88,-23 -88,-72l0 -166c0,-49 40,-95 88,-105l762 -142c49,-9 88,-56 88,-105l0 -321c0,-49 -40,-81 -88,-72l-1418 264c-48,9 -88,56 -88,105zm5090 -555c-85,-32 -181,-40 -288,-20 -99,18 -189,55 -268,112 -82,58 -147,132 -201,224l0 -132c0,-49 -40,-81 -88,-72l-460 86c-49,9 -88,56 -88,105l0 1370c0,49 40,81 88,72l460 -86c49,-9 88,-56 88,-105l0 -678c0,-76 20,-139 57,-191 37,-52 85,-84 147,-95 54,-10 99,1 133,32 34,33 51,81 51,146l0 715c0,49 40,81 88,72l460 -86c49,-9 88,-56 88,-105l0 -898c0,-116 -23,-216 -71,-295 -48,-79 -113,-137 -195,-170zm-2360 1416c30,-43 48,-97 48,-162l0 -166c0,-49 40,-95 88,-105l460 -86c49,-9 88,23 88,72l0 283c0,116 -24,224 -71,321 -46,96 -107,178 -189,242 -82,63 -175,106 -280,126 -211,39 -364,68 -575,107 -105,19 -198,11 -280,-21 -82,-33 -143,-93 -189,-171 -47,-79 -71,-179 -71,-295l0 -283c0,-48 40,-95 88,-105l460 -86c49,-9 88,23 88,72l0 166c0,65 18,112 48,144 63,67 223,37 286,-53zm-657 -977c164,-30 296,78 296,241 0,164 -133,321 -296,352 -164,30 -296,-78 -296,-241 0,-164 133,-321 296,-352zm1011 -188c164,-30 296,78 296,241 0,164 -133,321 -296,352 -164,30 -296,-78 -296,-241 0,-164 133,-321 296,-352zm-1925 4257l-93 -361c-3,-13 -11,-21 -23,-26 -12,-4 -24,-3 -37,3 -51,26 -90,41 -121,48 -39,9 -72,4 -96,-18 -24,-20 -36,-50 -36,-96l0 -449c0,-26 21,-51 47,-56l291 -54c26,-5 47,-30 47,-56l0 -333c0,-26 -21,-43 -47,-38l-291 54c-26,5 -47,-12 -47,-38l0 -301c0,-19 -11,-34 -29,-38 -18,-4 -37,3 -51,19l-738 866c-14,16 -18,37 -10,53 7,17 24,25 43,21l64 -12c26,-5 47,12 47,38l0 552c0,171 57,296 168,375 111,82 259,105 442,71 90,-17 180,-43 268,-77 70,-28 129,-57 177,-90 20,-14 30,-37 25,-58z"/>
 </g>
</svg>
