<?xml version="1.0" encoding="UTF-8"?>
<!DOCTYPE svg PUBLIC "-//W3C//DTD SVG 1.1//EN" "http://www.w3.org/Graphics/SVG/1.1/DTD/svg11.dtd">
<!-- Creator: CorelDRAW 2017 -->
<svg xmlns="http://www.w3.org/2000/svg" xml:space="preserve" width="0.36987in" height="0.347661in" version="1.1" style="shape-rendering:geometricPrecision; text-rendering:geometricPrecision; image-rendering:optimizeQuality; fill-rule:evenodd; clip-rule:evenodd"
viewBox="0 0 792 745"
 xmlns:xlink="http://www.w3.org/1999/xlink">
 <defs>
  <style type="text/css">
   <![CDATA[
    .fil0 {fill:#00BBFF}
    .fil1 {fill:#00BBFF;fill-rule:nonzero}
    .fil2 {fill:#94D6FF;fill-rule:nonzero}
   ]]>
  </style>
 </defs>
 <g id="Layer_x0020_1">
  <metadata id="CorelCorpID_0Corel-Layer"/>
  <g id="_1775318596656">
   <path class="fil0" d="M396 0c73,0 141,20 200,54 9,5 14,13 16,22 2,10 0,19 -6,27l-1 2c-10,14 -30,19 -45,10 -48,-28 -104,-44 -164,-44 -60,0 -116,16 -164,44 -15,9 -35,5 -45,-10l-1 -2c-6,-8 -8,-17 -6,-27 2,-10 8,-17 16,-22 59,-34 127,-54 200,-54zm396 394c0,1 0,1 0,2 0,147 -80,276 -199,344 -9,5 -18,6 -28,3 -10,-3 -17,-9 -21,-18l-1 -2c-7,-16 -1,-35 14,-44 98,-56 164,-161 164,-282 0,0 0,-1 0,-1 0,-18 13,-32 31,-34l2 0c10,-1 19,2 26,9 7,7 11,15 11,25zm-593 346c-119,-68 -199,-197 -199,-344 0,-1 0,-1 0,-2 0,-10 4,-19 11,-25 7,-7 16,-10 26,-9l2 0c18,2 31,16 31,34 0,0 0,1 0,1 0,121 66,226 164,282 15,9 21,28 14,44l-1 2c-4,9 -11,15 -21,18 -10,3 -19,2 -28,-3z"/>
   <path class="fil1" d="M247 254c10,-13 28,-16 41,-7 13,10 16,28 7,41l-61 83 61 83c10,13 7,32 -7,41 -13,10 -32,7 -41,-7l-73 -100c-8,-10 -8,-24 0,-35l73 -101z"/>
   <path class="fil1" d="M416 224c5,-16 22,-24 38,-18 16,5 24,22 18,38l-96 278c-5,16 -22,24 -38,18 -16,-5 -24,-22 -18,-38l96 -278z"/>
   <path class="fil2" d="M497 289c-10,-13 -7,-32 7,-41 13,-10 32,-7 41,7l73 101c8,11 7,25 0,35l-73 100c-10,13 -28,16 -41,7 -13,-10 -16,-28 -7,-41l61 -83 -61 -83z"/>
  </g>
 </g>
</svg>
