<?xml version="1.0" encoding="UTF-8"?>
<!DOCTYPE svg PUBLIC "-//W3C//DTD SVG 1.1//EN" "http://www.w3.org/Graphics/SVG/1.1/DTD/svg11.dtd">
<!-- Creator: CorelDRAW 2017 -->
<svg xmlns="http://www.w3.org/2000/svg" xml:space="preserve" width="0.36987in" height="0.347661in" version="1.1" style="shape-rendering:geometricPrecision; text-rendering:geometricPrecision; image-rendering:optimizeQuality; fill-rule:evenodd; clip-rule:evenodd"
viewBox="0 0 1154 1085"
 xmlns:xlink="http://www.w3.org/1999/xlink">
 <defs>
  <style type="text/css">
   <![CDATA[
    .fil0 {fill:#00BBFF}
    .fil1 {fill:#94D6FF}
   ]]>
  </style>
 </defs>
 <g id="Layer_x0020_1">
  <metadata id="CorelCorpID_0Corel-Layer"/>
  <g id="_1775314532336">
   <path class="fil0" d="M577 0c106,0 205,29 291,79 13,7 21,18 24,33 3,14 0,28 -8,39l-2 3c-15,21 -43,27 -66,14 -70,-41 -151,-64 -238,-64 -87,0 -168,23 -238,64 -22,13 -51,7 -66,-14l-2 -3c-8,-12 -11,-25 -8,-39 3,-14 11,-25 24,-33 85,-50 185,-79 291,-79zm577 575c0,1 0,2 0,2 0,214 -117,402 -291,501 -13,7 -26,9 -40,4 -14,-4 -24,-14 -30,-27l-1 -3c-11,-24 -2,-51 21,-64 142,-82 238,-235 238,-411 0,-1 0,-1 0,-2 0,-26 19,-47 45,-50l4 0c14,-1 28,3 38,13 11,10 16,22 16,37zm-863 503c-174,-99 -291,-287 -291,-501 0,-1 0,-2 0,-2 0,-15 6,-27 16,-37 11,-10 24,-14 38,-13l4 0c26,3 45,24 45,50 0,1 0,1 0,2 0,176 96,329 238,411 22,13 31,40 21,64l-1 3c-6,13 -16,22 -30,27 -14,4 -28,3 -40,-4z"/>
   <g>
    <path class="fil0" d="M577 619l38 0c16,121 110,69 110,69 0,0 60,43 98,62 132,67 111,-359 -56,-417 -71,-25 -124,45 -124,45 -31,-39 -101,-39 -132,0 0,0 -53,-70 -124,-45 -167,58 -188,484 -56,417 38,-19 98,-62 98,-62 0,0 94,53 110,-69l38 0zm-116 -30c20,0 37,17 37,37 0,20 -17,37 -37,37 -20,0 -37,-17 -37,-37 0,-20 17,-37 37,-37zm233 0c20,0 37,17 37,37 0,20 -17,37 -37,37 -20,0 -37,-17 -37,-37 0,-20 17,-37 37,-37zm-304 -175c35,0 63,28 63,63 0,35 -28,63 -63,63 -35,0 -63,-28 -63,-63 0,-35 28,-63 63,-63zm328 32c-6,-7 -6,-17 0,-23 7,-6 17,-6 23,0l29 30 29 -30c6,-7 17,-7 23,0 7,6 7,17 0,23l-29 30 29 30c6,7 6,17 0,23 -7,6 -17,6 -23,0l-29 -30 -29 30c-6,7 -17,7 -23,0 -7,-6 -7,-17 0,-23l29 -30 -29 -30z"/>
    <path class="fil1" d="M579 349l0 271 36 0c16,121 110,69 110,69 0,0 60,43 98,62 132,67 111,-359 -56,-417 -71,-25 -124,45 -124,45 -15,-19 -39,-29 -64,-30zm115 241c20,0 37,17 37,37 0,20 -17,37 -37,37 -20,0 -37,-17 -37,-37 0,-20 17,-37 37,-37zm24 -143c-6,-7 -6,-17 0,-23 7,-6 17,-6 23,0l29 30 29 -30c6,-7 17,-7 23,0 7,6 7,17 0,23l-29 30 29 30c6,7 6,17 0,23 -7,6 -17,6 -23,0l-29 -30 -29 30c-6,7 -17,7 -23,0 -7,-6 -7,-17 0,-23l29 -30 -29 -30z"/>
   </g>
  </g>
 </g>
</svg>
